<svg id="Layer_1" data-name="Layer 1" xmlns="http://www.w3.org/2000/svg" viewBox="0 0 220.16 41.97"><defs><style>.cls-1,.cls-3{fill:#47c0bb;}.cls-1{stroke:#47c0bb;stroke-width:1.21px;}.cls-1,.cls-2{stroke-miterlimit:10;}.cls-2,.cls-4{fill:#0083ca;}.cls-2{stroke:#0083ca;stroke-width:0.15px;}</style></defs><title>PUB_optix</title><path class="cls-1" d="M54.48,24.55h3.74V28h.09a10,10,0,0,1,8.23-3.91A11.2,11.2,0,0,1,77.81,35.16,11.4,11.4,0,0,1,66.37,46.72a9.47,9.47,0,0,1-8.06-3.83h-.09V55.37H54.48Zm11.4,3a7.84,7.84,0,1,0,7.94,7.65A7.74,7.74,0,0,0,65.88,27.55Z" transform="translate(-11.09 -14.01)"/><path class="cls-1" d="M97.06,43.68H97a6.8,6.8,0,0,1-6,3c-4.2,0-8.36-2.29-8.36-8.15v-14h3.75v12.6c0,3.25,1.33,6.07,5,6.07,3.49,0,5.61-2.37,5.61-6.48V24.55h3.75V46.22H97.06Z" transform="translate(-11.09 -14.01)"/><path class="cls-1" d="M106.79,14.61h3.74V28h.09a10,10,0,0,1,8.23-3.91,11.19,11.19,0,0,1,11.27,11.11,11.4,11.4,0,0,1-11.43,11.56,9.48,9.48,0,0,1-8.07-3.83h-.09v3.33h-3.74Zm11.4,12.94a7.84,7.84,0,1,0,7.94,7.65A7.74,7.74,0,0,0,118.19,27.55Z" transform="translate(-11.09 -14.01)"/><path class="cls-2" d="M147.17,24.05A11.43,11.43,0,0,1,158.9,35.41c0,6.19-4.66,11.31-11.73,11.31s-11.73-5.12-11.73-11.31A11.43,11.43,0,0,1,147.17,24.05Zm-7.73,11.36a7.74,7.74,0,1,0,15.47,0,7.74,7.74,0,1,0-15.47,0Z" transform="translate(-11.09 -14.01)"/><path class="cls-2" d="M162.85,24.55h3.74V28h.08a10,10,0,0,1,8.24-3.91,11.2,11.2,0,0,1,11.27,11.11,11.4,11.4,0,0,1-11.44,11.56,9.49,9.49,0,0,1-8.07-3.83h-.08V55.37h-3.74Zm11.39,3a7.84,7.84,0,1,0,7.94,7.65A7.73,7.73,0,0,0,174.24,27.55Z" transform="translate(-11.09 -14.01)"/><path class="cls-2" d="M191.12,19.31h3.75v5.24h3.45v3.29h-3.45V41.15c0,1.16.37,1.57,1.83,1.57h1.7v3.46c-.54,0-1.41,0-2.29,0-3.82,0-5-1.33-5-4.66V27.84h-3V24.55h3Z" transform="translate(-11.09 -14.01)"/><path class="cls-2" d="M203.81,15.07a2.62,2.62,0,1,1-2.62,2.62A2.61,2.61,0,0,1,203.81,15.07Zm-1.88,9.48h3.75V46.22h-3.75Z" transform="translate(-11.09 -14.01)"/><path class="cls-2" d="M226,24.55h4.74l-8.4,10.61,8.74,11.06h-5l-6.2-8.07-6.45,8.07h-4.74l8.74-11.06L209,24.55h5l5.86,7.82Z" transform="translate(-11.09 -14.01)"/><polygon class="cls-3" points="13.55 15.61 0 15.61 13.55 2.06 13.55 15.61"/><rect class="cls-4" x="17.69" y="2.06" width="13.55" height="13.55"/><rect class="cls-4" y="19.37" width="13.55" height="13.55"/><rect class="cls-3" x="17.69" y="19.37" width="13.55" height="13.55"/></svg>