<svg id="Layer_1" data-name="Layer 1" xmlns="http://www.w3.org/2000/svg" xmlns:xlink="http://www.w3.org/1999/xlink" viewBox="0 0 168.08 70.29"><defs><style>.cls-1{fill:url(#linear-gradient);}.cls-2{fill:url(#linear-gradient-2);}.cls-3{fill:url(#linear-gradient-3);}.cls-4{fill:url(#linear-gradient-4);}.cls-5{fill:url(#linear-gradient-5);}.cls-6{fill:url(#linear-gradient-6);}.cls-7{fill:url(#linear-gradient-7);}.cls-8{fill:url(#linear-gradient-8);}.cls-9{fill:#231f20;}</style><linearGradient id="linear-gradient" x1="30.83" y1="36.3" x2="162.37" y2="36.3" gradientUnits="userSpaceOnUse"><stop offset="0" stop-color="#8bc43f"/><stop offset="0.29" stop-color="#29b373"/><stop offset="0.64" stop-color="#1b76ba"/><stop offset="1" stop-color="#2d368e"/></linearGradient><linearGradient id="linear-gradient-2" x1="35.84" y1="36.28" x2="167.37" y2="36.28" xlink:href="#linear-gradient"/><linearGradient id="linear-gradient-3" x1="40.84" y1="36.3" x2="172.38" y2="36.3" xlink:href="#linear-gradient"/><linearGradient id="linear-gradient-4" x1="44.85" y1="36.3" x2="176.38" y2="36.3" xlink:href="#linear-gradient"/><linearGradient id="linear-gradient-5" x1="22.72" y1="29.69" x2="154.25" y2="29.69" xlink:href="#linear-gradient"/><linearGradient id="linear-gradient-6" x1="18.71" y1="29.69" x2="150.25" y2="29.69" xlink:href="#linear-gradient"/><linearGradient id="linear-gradient-7" x1="13.71" y1="29.69" x2="145.25" y2="29.69" xlink:href="#linear-gradient"/><linearGradient id="linear-gradient-8" x1="8.71" y1="29.69" x2="140.24" y2="29.69" xlink:href="#linear-gradient"/></defs><title>MORE_workshop</title><path class="cls-1" d="M34.14,20.47l7.41,21.77h.09l7-21.77h9.8V52.13H51.93V29.69h-.09L44.08,52.13H38.71L31,29.91h-.09V52.13H24.34V20.47Z" transform="translate(-24.13 -19.71)"/><path class="cls-2" d="M72.07,29.85a15.81,15.81,0,0,1,3.06-5.3A14,14,0,0,1,80,21a17.3,17.3,0,0,1,13.11,0A14,14,0,0,1,98,24.55a15.67,15.67,0,0,1,3.07,5.3,20,20,0,0,1,1.06,6.58,19.41,19.41,0,0,1-1.06,6.46A15.35,15.35,0,0,1,98,48.1a14,14,0,0,1-4.87,3.48,17.68,17.68,0,0,1-13.11,0,13.92,13.92,0,0,1-4.9-3.48,15.49,15.49,0,0,1-3.06-5.21A19.16,19.16,0,0,1,71,36.43,19.74,19.74,0,0,1,72.07,29.85Zm6.36,10.46a10.54,10.54,0,0,0,1.49,3.4,7.62,7.62,0,0,0,2.66,2.41,9.2,9.2,0,0,0,8,0,7.53,7.53,0,0,0,2.66-2.41,10.54,10.54,0,0,0,1.49-3.4,16.1,16.1,0,0,0,.47-3.88,17.3,17.3,0,0,0-.47-4,10.69,10.69,0,0,0-1.49-3.48,7.43,7.43,0,0,0-2.66-2.44,9.2,9.2,0,0,0-8,0,7.51,7.51,0,0,0-2.66,2.44,10.69,10.69,0,0,0-1.49,3.48,17.29,17.29,0,0,0-.46,4A16.1,16.1,0,0,0,78.43,40.31Z" transform="translate(-24.13 -19.71)"/><path class="cls-3" d="M130.72,20.47a10.38,10.38,0,0,1,3.84.68A8.91,8.91,0,0,1,137.49,23a8.24,8.24,0,0,1,1.86,2.77A8.86,8.86,0,0,1,140,29.2,9.56,9.56,0,0,1,138.82,34a7.39,7.39,0,0,1-3.84,3.1v.09a5.37,5.37,0,0,1,2.13,1.09,6.13,6.13,0,0,1,1.38,1.73,8.12,8.12,0,0,1,.77,2.19,19.77,19.77,0,0,1,.33,2.4q0,.75.09,1.77c0,.68.08,1.38.16,2.09a13.94,13.94,0,0,0,.35,2,4.51,4.51,0,0,0,.74,1.61h-7a12.41,12.41,0,0,1-.71-3.59c-.09-1.39-.22-2.72-.4-4a6.24,6.24,0,0,0-1.51-3.64,5.14,5.14,0,0,0-3.76-1.15h-7V52.13h-7V20.47Zm-2.48,14.32a5.25,5.25,0,0,0,3.59-1.06,4.41,4.41,0,0,0,1.2-3.46,4.22,4.22,0,0,0-1.2-3.35,5.36,5.36,0,0,0-3.59-1h-7.63v8.91Z" transform="translate(-24.13 -19.71)"/><path class="cls-4" d="M180,20.47v5.85H163.23v6.79h15.35v5.41H163.23v7.76h17.08v5.85h-24V20.47Z" transform="translate(-24.13 -19.71)"/><polygon class="cls-5" points="163.79 27.06 167.42 32.32 160.15 32.32 163.79 27.06"/><polygon class="cls-6" points="124.64 27.06 128.28 32.32 121 32.32 124.64 27.06"/><polygon class="cls-7" points="80.82 27.06 84.46 32.32 77.18 32.32 80.82 27.06"/><polygon class="cls-8" points="42.6 27.06 46.23 32.32 38.96 32.32 42.6 27.06"/><path class="cls-9" d="M26.54,64.59,31.29,80.5h.07L35.9,64.59h2.56L43,80.5h.07l4.76-15.91h2.41l-6,18.58H41.77L37.2,67.54h-.08L32.59,83.17H30.1l-6-18.58Z" transform="translate(-24.13 -19.71)"/><path class="cls-9" d="M66.63,64.84A8.18,8.18,0,0,1,69.38,67a9.08,9.08,0,0,1,1.69,3.11,12.74,12.74,0,0,1,0,7.6,9.17,9.17,0,0,1-1.69,3.11,8,8,0,0,1-2.75,2.11,9.59,9.59,0,0,1-7.53,0,8,8,0,0,1-2.75-2.11,9,9,0,0,1-1.69-3.11,12.74,12.74,0,0,1,0-7.6A8.91,8.91,0,0,1,56.35,67a8.18,8.18,0,0,1,2.75-2.13,9.37,9.37,0,0,1,7.53,0ZM60,66.64a6.28,6.28,0,0,0-2,1.8A8.32,8.32,0,0,0,56.76,71a10.46,10.46,0,0,0,0,5.8A8.16,8.16,0,0,0,58,79.31a6.2,6.2,0,0,0,2,1.81,6.29,6.29,0,0,0,5.69,0,6.3,6.3,0,0,0,2-1.81A8.16,8.16,0,0,0,69,76.78,10.46,10.46,0,0,0,69,71a8.32,8.32,0,0,0-1.23-2.54,6.39,6.39,0,0,0-2-1.8,6.29,6.29,0,0,0-5.69,0Z" transform="translate(-24.13 -19.71)"/><path class="cls-9" d="M79.46,64.59V69h.07a6.82,6.82,0,0,1,7-4.61v2.27a6.9,6.9,0,0,0-2.81.41,6.3,6.3,0,0,0-3.6,3.53,7.27,7.27,0,0,0-.5,2.72v9.9H77.37V64.59Z" transform="translate(-24.13 -19.71)"/><path class="cls-9" d="M93.32,57.46V73.59l10.3-9h3l-7.92,6.88,8.46,11.7h-2.84L97,73.05l-3.67,3.06v7.06H91.05V57.46Z" transform="translate(-24.13 -19.71)"/><path class="cls-9" d="M122.08,68.21A3.57,3.57,0,0,0,121,66.93a4.36,4.36,0,0,0-1.53-.74,7.4,7.4,0,0,0-3.36-.07,4.92,4.92,0,0,0-1.43.54,3,3,0,0,0-1,1,2.76,2.76,0,0,0-.4,1.51,2.13,2.13,0,0,0,.38,1.28,3.25,3.25,0,0,0,1,.88,6.11,6.11,0,0,0,1.26.6c.45.15.87.28,1.26.37l3,.69a9.06,9.06,0,0,1,1.93.52,6.16,6.16,0,0,1,1.69,1A4.83,4.83,0,0,1,125,76a4.46,4.46,0,0,1,.47,2.13,4.71,4.71,0,0,1-.68,2.57A5.56,5.56,0,0,1,123,82.43a7.43,7.43,0,0,1-2.39.95,12,12,0,0,1-2.63.29,8.5,8.5,0,0,1-5.31-1.55,6.55,6.55,0,0,1-2.32-5h2.27a4.46,4.46,0,0,0,1.67,3.48,6.08,6.08,0,0,0,3.8,1.17,8.58,8.58,0,0,0,1.71-.18,5.77,5.77,0,0,0,1.64-.61,4.11,4.11,0,0,0,1.24-1.1,2.74,2.74,0,0,0,.48-1.64,2.63,2.63,0,0,0-.34-1.39,2.92,2.92,0,0,0-.92-.93,5.9,5.9,0,0,0-1.31-.63c-.49-.17-1-.31-1.49-.43l-2.92-.65a14.94,14.94,0,0,1-2.05-.67,6.49,6.49,0,0,1-1.64-.93,4.07,4.07,0,0,1-1.1-1.37,4.6,4.6,0,0,1-.39-2,4.44,4.44,0,0,1,.63-2.41,5,5,0,0,1,1.63-1.62,7.69,7.69,0,0,1,2.25-.9,11,11,0,0,1,2.47-.29,9,9,0,0,1,2.61.36,5.91,5.91,0,0,1,2.12,1.12,5.39,5.39,0,0,1,1.46,1.87,6.57,6.57,0,0,1,.61,2.63h-2.26A4.28,4.28,0,0,0,122.08,68.21Z" transform="translate(-24.13 -19.71)"/><path class="cls-9" d="M133.28,57.46V67.79h.07a5.41,5.41,0,0,1,2.31-2.71,6.69,6.69,0,0,1,3.63-1,9.31,9.31,0,0,1,3.26.5A5.23,5.23,0,0,1,144.66,66a5.29,5.29,0,0,1,1.11,2.25,12.41,12.41,0,0,1,.33,3v12h-2.27V71.58a10.31,10.31,0,0,0-.22-2.22,4.61,4.61,0,0,0-.75-1.78,3.75,3.75,0,0,0-1.46-1.19,5.35,5.35,0,0,0-2.29-.43,5.86,5.86,0,0,0-2.43.48,5.24,5.24,0,0,0-1.8,1.34,6,6,0,0,0-1.15,2,8,8,0,0,0-.45,2.54V83.17H131V57.46Z" transform="translate(-24.13 -19.71)"/><path class="cls-9" d="M164.33,64.84A8.18,8.18,0,0,1,167.08,67a9.1,9.1,0,0,1,1.7,3.11,13,13,0,0,1,0,7.6,9.19,9.19,0,0,1-1.7,3.11,8,8,0,0,1-2.75,2.11,9.57,9.57,0,0,1-7.52,0,7.94,7.94,0,0,1-2.76-2.11,9.17,9.17,0,0,1-1.69-3.11,12.74,12.74,0,0,1,0-7.6A9.08,9.08,0,0,1,154.05,67a8.12,8.12,0,0,1,2.76-2.13,9.34,9.34,0,0,1,7.52,0Zm-6.61,1.8a6.39,6.39,0,0,0-2,1.8A8.08,8.08,0,0,0,154.47,71a10.22,10.22,0,0,0,0,5.8,7.92,7.92,0,0,0,1.22,2.53,6.3,6.3,0,0,0,2,1.81,5.83,5.83,0,0,0,2.85.68,5.76,5.76,0,0,0,2.84-.68,6.23,6.23,0,0,0,2-1.81,8.14,8.14,0,0,0,1.22-2.53,10.46,10.46,0,0,0,0-5.8,8.3,8.3,0,0,0-1.22-2.54,6.32,6.32,0,0,0-2-1.8,5.76,5.76,0,0,0-2.84-.68A5.83,5.83,0,0,0,157.72,66.64Z" transform="translate(-24.13 -19.71)"/><path class="cls-9" d="M177.16,64.59v3.53h.08a6,6,0,0,1,2.57-3,7.84,7.84,0,0,1,4.05-1.06,8.22,8.22,0,0,1,3.69.79A7.66,7.66,0,0,1,190.16,67a9.32,9.32,0,0,1,1.55,3.14,14.39,14.39,0,0,1,0,7.52,9.27,9.27,0,0,1-1.55,3.13,7.52,7.52,0,0,1-2.61,2.13,8.36,8.36,0,0,1-3.69.77,8.22,8.22,0,0,1-2-.25,7.13,7.13,0,0,1-1.87-.76,6,6,0,0,1-1.53-1.26,5.41,5.41,0,0,1-1-1.76h-.07V90h-2.27V64.59ZM189.6,71a8,8,0,0,0-1.08-2.54,6,6,0,0,0-1.89-1.82,5.21,5.21,0,0,0-2.77-.7,6.69,6.69,0,0,0-3.13.65,5.49,5.49,0,0,0-2,1.72,6.88,6.88,0,0,0-1.06,2.52,14.82,14.82,0,0,0-.31,3,12.63,12.63,0,0,0,.34,2.86,7.4,7.4,0,0,0,1.12,2.54,5.82,5.82,0,0,0,5.06,2.52,5.21,5.21,0,0,0,2.77-.7,6,6,0,0,0,1.89-1.82,8,8,0,0,0,1.08-2.54,12.2,12.2,0,0,0,0-5.72Z" transform="translate(-24.13 -19.71)"/></svg>