<?xml version="1.0" encoding="utf-8"?>
<!-- Generator: Adobe Illustrator 23.0.3, SVG Export Plug-In . SVG Version: 6.00 Build 0)  -->
<svg version="1.1" id="Layer_1" xmlns="http://www.w3.org/2000/svg" xmlns:xlink="http://www.w3.org/1999/xlink" x="0px" y="0px"
	 viewBox="0 0 264.52 91.4" style="enable-background:new 0 0 264.52 91.4;" xml:space="preserve">
<style type="text/css">
	.st0{fill:#0083CA;}
	.st1{fill:#2CA449;}
	.st2{fill:#00717C;}
</style>
<g>
	<polygon class="st0" points="21.35,44.05 52.83,44.08 52.8,12.67 84.29,44.15 52.86,75.4 	"/>
	<g>
		<path class="st1" d="M90.52,36.76h7.6c3.14,0,5.26,1.09,5.26,3.99c0,1.99-1.14,3.03-3.25,3.51v0.04c2.12,0.15,3.82,1.27,3.82,3.56
			c0,3.21-2.4,4.43-6.35,4.43h-7.07V36.76z M94.23,42.87h3.23c1.24,0,2.03-0.48,2.03-1.62c0-1.31-0.74-1.61-2.03-1.61h-3.23V42.87z
			 M94.27,49.42h3.16c2.05,0,2.62-0.81,2.62-1.81c0-1.29-0.48-1.86-1.92-1.86h-3.86V49.42"/>
		<path class="st1" d="M105.16,36.76h3.4v2.62h-3.4V36.76z M105.16,40.69h3.4V52.3h-3.4V40.69z"/>
		<path class="st1" d="M122.01,46.5c0,3.91-2.55,6.11-6.18,6.11c-3.62,0-6.18-2.21-6.18-6.11c0-3.91,2.55-6.11,6.18-6.11
			C119.46,40.38,122.01,42.59,122.01,46.5 M113.07,46.5c0,1.99,0.83,3.49,2.77,3.49c1.94,0,2.78-1.51,2.78-3.62
			c0-1.85-0.83-3.36-2.78-3.36C113.89,43,113.07,44.51,113.07,46.5"/>
		<path class="st1" d="M124.59,47.65c1.35,1.22,2.64,1.94,4.5,1.94c1.03,0,2.9-0.44,2.9-1.79c0-0.78-0.59-1.18-1.75-1.38l-3.23-0.52
			c-2.88-0.46-4.45-1.99-4.45-4.28c0-3.75,3.03-5.3,6.35-5.3c2.58,0,5.11,1.05,6.85,2.99l-2.95,2.12c-1.03-1.25-2.53-1.96-4.17-1.96
			c-0.89,0-2.21,0.57-2.21,1.57c0,0.83,0.68,1.25,2.16,1.49l1.48,0.24c3.1,0.5,5.65,1.46,5.65,4.43c0,4.67-4.21,5.55-7.11,5.55
			c-2.64,0-4.89-0.85-7.01-3.16L124.59,47.65"/>
		<path class="st1" d="M144.45,44.6c-0.61-1.31-1.66-1.59-2.18-1.59c-1.94,0-2.64,1.51-2.64,3.49c0,1.99,0.83,3.49,2.64,3.49
			c1.05,0,1.88-0.39,2.42-1.71l2.44,1.25c-1.05,1.86-2.95,3.08-5.17,3.08c-3.47,0-5.87-2.2-5.87-6.11c0-3.84,2.55-6.11,5.76-6.11
			c2.21,0,4.1,0.81,5.22,2.84L144.45,44.6"/>
		<path class="st1" d="M147.93,36.76h3.4v2.62h-3.4V36.76z M147.93,40.69h3.4V52.3h-3.4V40.69z"/>
		<path class="st1" d="M155.83,47.2c0.02,2.23,1.44,2.93,2.53,2.93c1.27,0,1.86-0.66,2.84-2.05l2.55,1.33
			c-1.18,2.18-3.03,3.21-5.63,3.21c-3.6,0-5.7-2.49-5.7-5.76c0-4.1,2.16-6.46,5.7-6.46c4.23,0,5.68,3.23,5.7,6.81H155.83z
			 M160.41,45.1c-0.11-1.7-1.33-2.23-2.31-2.23c-0.98,0-2.16,0.7-2.31,2.23H160.41"/>
		<path class="st1" d="M165.06,40.69h3.41v1.03c0.87-1.03,2.31-1.33,3.36-1.33c2.75,0,3.51,1.6,3.51,3.34v8.58h-3.4v-7.27
			c0-1.14-0.35-1.9-1.66-1.9c-1.38,0-1.81,0.89-1.81,1.94v7.23h-3.41V40.69"/>
		<path class="st1" d="M184.79,44.6c-0.61-1.31-1.66-1.59-2.18-1.59c-1.94,0-2.64,1.51-2.64,3.49c0,1.99,0.83,3.49,2.64,3.49
			c1.05,0,1.88-0.39,2.42-1.71l2.44,1.25c-1.05,1.86-2.95,3.08-5.17,3.08c-3.47,0-5.87-2.2-5.87-6.11c0-3.84,2.55-6.11,5.76-6.11
			c2.21,0,4.11,0.81,5.22,2.84L184.79,44.6"/>
		<path class="st1" d="M190.84,47.2c0.02,2.23,1.44,2.93,2.53,2.93c1.27,0,1.85-0.66,2.84-2.05l2.56,1.33
			c-1.18,2.18-3.03,3.21-5.63,3.21c-3.6,0-5.7-2.49-5.7-5.76c0-4.1,2.16-6.46,5.7-6.46c4.23,0,5.68,3.23,5.7,6.81H190.84z
			 M195.43,45.1c-0.11-1.7-1.33-2.23-2.31-2.23c-0.98,0-2.16,0.7-2.31,2.23H195.43"/>
		<path class="st1" d="M100.8,64.23c-0.55-1.44-1.88-2.34-3.23-2.34c-2.14,0-3.84,1.44-3.84,4.93c0,2.27,0.92,4.93,3.97,4.93
			c1.05,0,2.58-0.78,3.19-2.18l3.08,1.49c-1.33,2.42-3.65,3.97-6.27,3.97c-4.95,0-7.86-3.84-7.86-8.21c0-4.37,2.7-8.21,7.55-8.21
			c3.06,0,5.06,1.49,6.51,4.06L100.8,64.23"/>
		<path class="st1" d="M116.3,68.79c0,3.91-2.55,6.11-6.18,6.11c-3.62,0-6.18-2.21-6.18-6.11c0-3.91,2.55-6.11,6.18-6.11
			C113.74,62.68,116.3,64.89,116.3,68.79 M107.35,68.79c0,1.99,0.83,3.49,2.77,3.49c1.94,0,2.77-1.51,2.77-3.62
			c0-1.85-0.83-3.36-2.77-3.36C108.17,65.3,107.35,66.81,107.35,68.79"/>
		<path class="st1" d="M117.39,62.99h3.4v1.03c0.87-1.03,2.31-1.33,3.36-1.33c1.33,0,2.31,0.52,3.08,1.55
			c1.11-1.14,2.38-1.55,3.73-1.55c1.14,0,3.58,0.39,3.58,3.06v8.86h-3.4v-6.79c0-1.64-0.46-2.38-1.75-2.38
			c-1.14,0-1.72,0.85-1.72,2.03v7.14h-3.41v-7.27c0-1.13-0.35-1.9-1.66-1.9c-1.38,0-1.81,0.89-1.81,1.94v7.23h-3.4V62.99"/>
		<path class="st1" d="M136.47,62.99h3.41v1.03c0.87-1.03,2.31-1.33,3.36-1.33c1.33,0,2.31,0.52,3.08,1.55
			c1.12-1.14,2.38-1.55,3.73-1.55c1.14,0,3.58,0.39,3.58,3.06v8.86h-3.4v-6.79c0-1.64-0.46-2.38-1.75-2.38
			c-1.13,0-1.73,0.85-1.73,2.03v7.14h-3.4v-7.27c0-1.13-0.35-1.9-1.66-1.9c-1.38,0-1.81,0.89-1.81,1.94v7.23h-3.41V62.99"/>
		<path class="st1" d="M165.83,74.6h-3.41v-1.03c-0.87,1.03-2.31,1.33-3.36,1.33c-2.75,0-3.51-1.59-3.51-3.34v-8.58h3.4v7.6
			c0,1.03,0.37,1.57,1.66,1.57c0.98,0,1.81-0.55,1.81-1.81v-7.36h3.41V74.6"/>
		<path class="st1" d="M167.75,62.99h3.41v1.03c0.87-1.03,2.31-1.33,3.36-1.33c2.75,0,3.51,1.59,3.51,3.34v8.58h-3.41v-7.27
			c0-1.13-0.35-1.9-1.66-1.9c-1.38,0-1.81,0.89-1.81,1.94v7.23h-3.41V62.99"/>
		<path class="st1" d="M179.95,59.06h3.4v2.62h-3.4V59.06z M179.95,62.99h3.4V74.6h-3.4V62.99z"/>
		<path class="st1" d="M192.81,66.9c-0.61-1.31-1.66-1.59-2.18-1.59c-1.94,0-2.64,1.51-2.64,3.49c0,1.99,0.83,3.49,2.64,3.49
			c1.05,0,1.88-0.39,2.42-1.7l2.44,1.24c-1.05,1.86-2.95,3.08-5.17,3.08c-3.47,0-5.87-2.21-5.87-6.11c0-3.84,2.55-6.11,5.76-6.11
			c2.21,0,4.1,0.81,5.22,2.84L192.81,66.9"/>
		<path class="st1" d="M206.08,72.18c0,0.81,0.02,1.7,0.31,2.42h-3.14c-0.13-0.39-0.2-0.81-0.22-1.2h-0.04
			c-0.57,0.92-2.27,1.51-3.49,1.51c-2.23,0-3.88-1.22-3.88-3.45c0-2.8,2.25-3.78,5.96-4.3l1.25-0.18v-0.96
			c0-0.87-0.7-1.25-1.62-1.25c-1.09,0-1.62,0.39-1.79,1.55h-3.27c0.11-3.34,3.21-3.64,4.78-3.64c3.16,0,5.15,0.74,5.17,3.36V72.18z
			 M202.8,68.95l-2.29,0.66c-0.85,0.24-1.64,0.57-1.64,1.51c0,0.92,0.76,1.31,1.59,1.31c1.33,0,2.34-0.89,2.34-2.66V68.95"/>
		<path class="st1" d="M213.83,65.3h-2.03V71c0,0.92,0.46,1.16,1.07,1.16c0.37,0,0.85-0.04,1.03-0.07v2.69
			c-0.44,0.04-1.44,0.13-2.18,0.13c-2.9,0-3.32-1.81-3.32-3.49V65.3h-1.66v-2.1h1.66v-3.36h3.41v3.36h2.03V65.3"/>
		<path class="st1" d="M214.63,59.06h3.41v2.62h-3.41V59.06z M214.63,62.99h3.41V74.6h-3.41V62.99z"/>
		<path class="st1" d="M231.49,68.79c0,3.91-2.55,6.11-6.18,6.11c-3.62,0-6.18-2.21-6.18-6.11c0-3.91,2.56-6.11,6.18-6.11
			C228.93,62.68,231.49,64.89,231.49,68.79 M222.54,68.79c0,1.99,0.83,3.49,2.77,3.49c1.94,0,2.77-1.51,2.77-3.62
			c0-1.85-0.83-3.36-2.77-3.36C223.37,65.3,222.54,66.81,222.54,68.79"/>
		<path class="st1" d="M232.58,62.99h3.4v1.03c0.87-1.03,2.31-1.33,3.36-1.33c2.75,0,3.52,1.59,3.52,3.34v8.58h-3.41v-7.27
			c0-1.13-0.35-1.9-1.66-1.9c-1.38,0-1.81,0.89-1.81,1.94v7.23h-3.4V62.99"/>
		<path class="st1" d="M252.31,66.41c-0.68-0.81-2.14-1.24-3.21-1.24c-0.85,0-1.46,0.31-1.46,0.89c0,1.99,6.87,0.35,6.87,4.69
			c0,3.06-2.7,4.15-5.24,4.15c-2.53,0-3.97-0.72-5.67-2.29l2.12-1.83c1.05,1,2.12,1.64,3.67,1.64c0.57,0,1.85-0.13,1.85-1.18
			c0-1.81-6.88-0.37-6.88-4.5c0-2.93,2.55-4.06,4.91-4.06c1.79,0,3.56,0.63,5.13,1.68L252.31,66.41"/>
		<polygon class="st2" points="52.83,44.08 84.29,44.15 52.86,75.4 		"/>
		<polygon class="st1" points="21.35,44.05 52.83,44.08 52.86,75.4 		"/>
	</g>
</g>
</svg>
