<svg id="Layer_1" data-name="Layer 1" xmlns="http://www.w3.org/2000/svg" xmlns:xlink="http://www.w3.org/1999/xlink" viewBox="0 0 172.18 59.95"><defs><style>.cls-1{fill:none;}.cls-2{fill:#058dcb;}.cls-3{clip-path:url(#clip-path);}.cls-4{fill:#bed0e7;}.cls-5{clip-path:url(#clip-path-2);}.cls-6{fill:#b6cde7;}.cls-7{fill:#e3e8f1;}.cls-8{fill:#1680bd;}.cls-9{clip-path:url(#clip-path-4);}.cls-10{fill:#31a654;}.cls-11{fill:#cedbb4;}.cls-12{fill:#bcd8bb;}.cls-13{fill:#e7ebde;}.cls-14{fill:#2d9a49;}.cls-15{clip-path:url(#clip-path-7);}.cls-16{fill:#eb7c20;}.cls-17{fill:#f3ccad;}.cls-18{fill:#f4caa7;}.cls-19{fill:#ffe7db;}.cls-20{fill:#e96822;}</style><clipPath id="clip-path" transform="translate(-8.89 -4.74)"><rect class="cls-1" x="127.15" y="6.66" width="53.9" height="54.79"/></clipPath><clipPath id="clip-path-2" transform="translate(-8.89 -4.74)"><rect class="cls-1" x="-1.49" y="6.66" width="183.03" height="72.77"/></clipPath><clipPath id="clip-path-4" transform="translate(-8.89 -4.74)"><rect class="cls-1" x="10.21" y="6.66" width="53.35" height="54.82"/></clipPath><clipPath id="clip-path-7" transform="translate(-8.89 -4.74)"><rect class="cls-1" x="68.05" y="6.66" width="54.63" height="54.79"/></clipPath></defs><title>SVG_logo</title><rect class="cls-2" x="118.26" y="1.92" width="53.9" height="54.79"/><g class="cls-3"><path class="cls-4" d="M151.1,40.58V31.32H175V53.23a30,30,0,0,1-10.11,5.94,36.81,36.81,0,0,1-13.4,2.57,30.14,30.14,0,0,1-15-3.62,23,23,0,0,1-9.63-10.35,33.5,33.5,0,0,1-3.23-14.65,31.66,31.66,0,0,1,3.6-15.27A24.23,24.23,0,0,1,137.75,7.6a28.47,28.47,0,0,1,13.16-2.73q10.23,0,16,4.29A19.4,19.4,0,0,1,174.31,21l-11,2.06a11.65,11.65,0,0,0-4.37-6.4,13.19,13.19,0,0,0-8-2.34q-7.28,0-11.57,4.61t-4.29,13.7q0,9.78,4.35,14.68a14.51,14.51,0,0,0,11.4,4.9,19.18,19.18,0,0,0,7-1.37,23.94,23.94,0,0,0,6-3.32v-7H151.1" transform="translate(-8.89 -4.74)"/></g><g class="cls-5"><path class="cls-6" d="M150.8,52.25a14.64,14.64,0,0,1-10.2-3.69h21.79a25.68,25.68,0,0,1-4.6,2.32,19.18,19.18,0,0,1-7,1.37m-4.05,9.19h-19.6V48.56h.09a22.93,22.93,0,0,0,9.23,9.56,28,28,0,0,0,10.28,3.32m34.29,0H156.11a37.4,37.4,0,0,0,8.8-2.27A30,30,0,0,0,175,53.23V48.56h6V61.44" transform="translate(-8.89 -4.74)"/><path class="cls-7" d="M156.11,61.44h-9.36a28,28,0,0,1-10.28-3.32,22.93,22.93,0,0,1-9.23-9.56H140.6a14.64,14.64,0,0,0,10.2,3.69,19.18,19.18,0,0,0,7-1.37,25.68,25.68,0,0,0,4.6-2.32H175v4.67a30,30,0,0,1-10.11,5.94,37.4,37.4,0,0,1-8.8,2.27" transform="translate(-8.89 -4.74)"/></g><g class="cls-3"><path class="cls-8" d="M138.37,52.45v2.08a8,8,0,0,0-3.55-.88,3.69,3.69,0,0,0-2.59.84,2.84,2.84,0,0,0-.9,2.16,2.56,2.56,0,0,0,.9,2,3.54,3.54,0,0,0,2.39.78,4,4,0,0,0,1.57-.34V58h-1.37V56.26h3.75v3.89a4.08,4.08,0,0,1-1.72.93,7.63,7.63,0,0,1-2.29.35,6,6,0,0,1-4.08-1.37,4.66,4.66,0,0,1,0-7,6.13,6.13,0,0,1,4.14-1.37,8.53,8.53,0,0,1,3.75.79" transform="translate(-8.89 -4.74)"/><path class="cls-8" d="M140.64,51.92h4.25a3.17,3.17,0,0,1,2.25.8,2.55,2.55,0,0,1,.87,1.94A2.48,2.48,0,0,1,146.37,57a3.35,3.35,0,0,1,1.37,1.75c.43,1,.84,1.86,1.24,2.7h-2.6c-.16-.31-.43-.91-.81-1.79a5.77,5.77,0,0,0-1-1.7,1.3,1.3,0,0,0-.89-.37H143v3.86h-2.37ZM143,53.67v2.17h1.26a1.55,1.55,0,0,0,.95-.28,1,1,0,0,0,.35-.81c0-.72-.46-1.08-1.36-1.08Z" transform="translate(-8.89 -4.74)"/><path class="cls-8" d="M154.93,51.68a5.4,5.4,0,0,1,3.94,1.47,4.62,4.62,0,0,1,0,6.85A6.05,6.05,0,0,1,151,60a4.64,4.64,0,0,1,0-6.86,5.42,5.42,0,0,1,4-1.46m0,7.79a3,3,0,0,0,2.17-.8,3.08,3.08,0,0,0,0-4.21,3,3,0,0,0-2.17-.8,3.06,3.06,0,0,0-2.19.8,3.11,3.11,0,0,0,0,4.21,3,3,0,0,0,2.19.8" transform="translate(-8.89 -4.74)"/><path class="cls-8" d="M169.16,51.8h2.37v5.41a4,4,0,0,1-1.23,3.16,5.21,5.21,0,0,1-3.53,1.08,5.14,5.14,0,0,1-3.51-1.09A3.92,3.92,0,0,1,162,57.22V51.8h2.38v5.48a2,2,0,0,0,.65,1.59,2.4,2.4,0,0,0,1.7.6,2.46,2.46,0,0,0,1.76-.61,2.27,2.27,0,0,0,.66-1.75Z" transform="translate(-8.89 -4.74)"/><path class="cls-8" d="M173.67,51.92h4.25a3.1,3.1,0,0,1,2.29.84,2.7,2.7,0,0,1,.86,2,2.74,2.74,0,0,1-.85,2,3.09,3.09,0,0,1-2.29.85H176v3.82h-2.37ZM176,53.67v2.21h1.11c1,0,1.48-.37,1.48-1.11a.94.94,0,0,0-.4-.86,2.74,2.74,0,0,0-1.35-.24Z" transform="translate(-8.89 -4.74)"/></g><g class="cls-9"><rect class="cls-10" x="0.22" width="57.44" height="57.48"/><path class="cls-11" d="M8.89,45l11.29-1.1q1,5.7,4.14,8.36a12.47,12.47,0,0,0,8.4,2.67q5.61,0,8.45-2.38A7,7,0,0,0,44,47a5.28,5.28,0,0,0-1.19-3.47A9.65,9.65,0,0,0,38.64,41c-1.36-.47-4.45-1.31-9.29-2.51Q20,36.18,16.26,32.8A15,15,0,0,1,11,21.23,14.78,14.78,0,0,1,13.46,13a15.64,15.64,0,0,1,7.17-5.83,28.78,28.78,0,0,1,11.31-2q10.81,0,16.29,4.75A16.75,16.75,0,0,1,54,22.61l-11.6.51c-.5-3-1.56-5.08-3.2-6.38s-4.08-1.94-7.35-1.94-6,.69-7.92,2.08a4.21,4.21,0,0,0-1.84,3.57,4.42,4.42,0,0,0,1.73,3.49Q26,25.79,34.45,27.78A56.78,56.78,0,0,1,47,31.92a16.1,16.1,0,0,1,6.35,5.85,17.07,17.07,0,0,1,2.3,9.15,17,17,0,0,1-2.75,9.26,16.4,16.4,0,0,1-7.76,6.41,32.47,32.47,0,0,1-12.5,2.1q-10.9,0-16.74-5T8.89,45" transform="translate(-8.89 -4.74)"/></g><g class="cls-5"><path class="cls-12" d="M32.72,54.89a12.47,12.47,0,0,1-8.4-2.67,10.8,10.8,0,0,1-2.71-3.66H43.82a7.51,7.51,0,0,1-2.65,3.94q-2.84,2.39-8.45,2.38m-14.3,6.59H10.21V51a19.28,19.28,0,0,0,5.66,8.65,16.84,16.84,0,0,0,2.55,1.83m45.14,0H47.36a16,16,0,0,0,5.51-5.3,17.11,17.11,0,0,0,2.67-7.61h8V61.48" transform="translate(-8.89 -4.74)"/><path class="cls-13" d="M47.36,61.48H18.42a16.84,16.84,0,0,1-2.55-1.83A19.28,19.28,0,0,1,10.21,51V48.56h11.4a10.8,10.8,0,0,0,2.71,3.66,12.47,12.47,0,0,0,8.4,2.67q5.61,0,8.45-2.38a7.51,7.51,0,0,0,2.65-3.94H55.54a17.11,17.11,0,0,1-2.67,7.61,16,16,0,0,1-5.51,5.3" transform="translate(-8.89 -4.74)"/><path class="cls-14" d="M48.39,52.41v1.87a7.93,7.93,0,0,0-3-.86,2,2,0,0,0-1,.22.64.64,0,0,0-.38.57.72.72,0,0,0,.27.52,5.3,5.3,0,0,0,1.33.63,14.45,14.45,0,0,1,1.69.72,3.32,3.32,0,0,1,1.1,1,2.42,2.42,0,0,1,.46,1.53,2.56,2.56,0,0,1-1,2.11,4.19,4.19,0,0,1-2.64.78,6.94,6.94,0,0,1-3.44-.92V58.48a8.93,8.93,0,0,0,1.69.93,4.09,4.09,0,0,0,1.56.3c.93,0,1.4-.3,1.4-.88a.78.78,0,0,0-.28-.57,4.6,4.6,0,0,0-1.35-.65,13.07,13.07,0,0,1-1.69-.71A3.39,3.39,0,0,1,42,56a2.55,2.55,0,0,1-.45-1.56,2.36,2.36,0,0,1,1-2,4.28,4.28,0,0,1,2.65-.75,8.12,8.12,0,0,1,3.22.73" transform="translate(-8.89 -4.74)"/></g><g class="cls-9"><path class="cls-14" d="M59.24,58.42V60.5a7.8,7.8,0,0,1-3.75,1,5.72,5.72,0,0,1-4-1.4,4.67,4.67,0,0,1,.09-6.94,5.89,5.89,0,0,1,4.14-1.43,6.63,6.63,0,0,1,3.45.84v2.12a6.75,6.75,0,0,0-3.28-1,3.7,3.7,0,0,0-2.49.82,2.59,2.59,0,0,0-1,2.07,2.67,2.67,0,0,0,1,2.1,3.58,3.58,0,0,0,2.44.82,5.05,5.05,0,0,0,1.41-.19,13.81,13.81,0,0,0,2-.86" transform="translate(-8.89 -4.74)"/><rect class="cls-14" x="52.32" y="47.17" width="2.37" height="9.53"/></g><g class="cls-15"><rect class="cls-16" x="57.82" width="57.44" height="57.48"/><polygon class="cls-17" points="75.46 58.77 55.05 1.63 67.55 1.63 82.01 43.92 95.99 1.63 108.22 1.63 87.77 58.77 75.46 58.77"/></g><path class="cls-18" d="M90.9,48.66l0-.1h.06ZM83.62,61.44H68.05V48.56H79l4.61,12.88m39.07,0H97.4L102,48.56h20.68V61.44" transform="translate(-8.89 -4.74)"/><g class="cls-15"><polygon class="cls-19" points="88.51 56.71 74.72 56.71 70.12 43.83 81.97 43.83 82.01 43.92 82.04 43.83 93.12 43.83 88.51 56.71"/><polygon class="cls-20" points="99.88 47.07 95.48 56.72 94.45 56.72 89.84 47.07 92.42 47.07 94.94 52.51 97.33 47.07 99.88 47.07"/><rect class="cls-20" x="101.03" y="47.19" width="2.37" height="9.53"/><polygon class="cls-20" points="113.83 47.18 108.64 54.96 113.83 54.96 113.83 56.71 104.59 56.71 109.82 48.92 104.95 48.92 104.95 47.18 113.83 47.18"/></g></svg>