<svg id="Layer_1" data-name="Layer 1" xmlns="http://www.w3.org/2000/svg" viewBox="0 0 269.81 53.88"><defs><style>.cls-1{fill:#7baf41;}.cls-2{fill:#0083ca;}</style></defs><title>Expert_Optix</title><path class="cls-1" d="M73.85,46.66a1,1,0,1,1-1,1A1,1,0,0,1,73.85,46.66Zm-.72,3.67h1.45v8.4H73.13Z" transform="translate(-10.12 -8.39)"/><path class="cls-1" d="M82.73,53.85c0-1.26-.51-2.35-2-2.35s-2.17.91-2.17,2.51v4.72H77.16v-8.4h1.45v1h0a2.63,2.63,0,0,1,2.3-1.18,3,3,0,0,1,3.24,3.16v5.43H82.73Z" transform="translate(-10.12 -8.39)"/><path class="cls-1" d="M87.59,56.28a1.6,1.6,0,0,0,1.74,1.37c1.31,0,1.66-.71,1.66-1.21s-.35-.89-1.48-1.19l-1.46-.4a2.07,2.07,0,0,1-1.71-2.16c0-1.39,1-2.55,3-2.55a2.55,2.55,0,0,1,2.89,2.61H90.86a1.4,1.4,0,0,0-1.56-1.42c-.92,0-1.51.55-1.51,1.21,0,.47.26.82.93,1l2,.56a2.06,2.06,0,0,1,1.75,2.19,2.76,2.76,0,0,1-3,2.61c-2,0-3.11-1.05-3.16-2.64Z" transform="translate(-10.12 -8.39)"/><path class="cls-1" d="M95.3,46.66a1,1,0,1,1,0,2,1,1,0,0,1,0-2Zm-.72,3.67H96v8.4H94.58Z" transform="translate(-10.12 -8.39)"/><path class="cls-1" d="M105.67,50.33h1.45v7.24c0,3.09-1.48,4.7-4.73,4.7a5.07,5.07,0,0,1-3.92-1.8l1.16-.92A3.51,3.51,0,0,0,102.42,61c2.25,0,3.25-1.13,3.25-3v-.59h0a3.66,3.66,0,0,1-3.24,1.41,4.34,4.34,0,0,1,0-8.68,3.89,3.89,0,0,1,3.19,1.51h0Zm-3,1.17a3,3,0,1,0,3,3A3,3,0,0,0,102.71,51.5Z" transform="translate(-10.12 -8.39)"/><path class="cls-1" d="M115.34,53.85c0-1.26-.51-2.35-2-2.35s-2.17.91-2.17,2.51v4.72h-1.45V46.49h1.45v4.83h0a2.65,2.65,0,0,1,2.31-1.18,3,3,0,0,1,3.23,3.16v5.43h-1.45Z" transform="translate(-10.12 -8.39)"/><path class="cls-1" d="M119.54,48.31H121v2h1.34v1.28H121v5.15c0,.45.14.61.71.61h.66v1.34c-.21,0-.55,0-.89,0-1.48,0-1.93-.52-1.93-1.81V51.61h-1.16V50.33h1.16Z" transform="translate(-10.12 -8.39)"/><path class="cls-1" d="M126.17,53.36a1.06,1.06,0,1,1-1.06,1.06A1.08,1.08,0,0,1,126.17,53.36Z" transform="translate(-10.12 -8.39)"/><path class="cls-1" d="M131.23,49.06c0-1.75,1.21-2.59,2.88-2.67v1.45h-.29a1.18,1.18,0,0,0-1.14,1.33v1.16h1.37v1.28h-1.37v7.12h-1.45V51.61H130V50.33h1.27Z" transform="translate(-10.12 -8.39)"/><path class="cls-1" d="M139.77,50.14a4.43,4.43,0,0,1,4.54,4.4,4.55,4.55,0,0,1-9.09,0A4.43,4.43,0,0,1,139.77,50.14Zm-3,4.4a3,3,0,1,0,6,0,3,3,0,1,0-6,0Z" transform="translate(-10.12 -8.39)"/><path class="cls-1" d="M152.35,52.33a2.73,2.73,0,0,0-1.95-.83,2.8,2.8,0,0,0-2.77,3.1,2.78,2.78,0,0,0,4.78,2.11l.86,1.07a4.06,4.06,0,0,1-2.91,1.14,4.25,4.25,0,0,1-4.28-4.36,4.36,4.36,0,0,1,4.3-4.42,4.66,4.66,0,0,1,3,1Z" transform="translate(-10.12 -8.39)"/><path class="cls-1" d="M160.57,57.74h0a2.64,2.64,0,0,1-2.3,1.18A3,3,0,0,1,155,55.76V50.33h1.45v4.89c0,1.25.51,2.35,2,2.35s2.17-.92,2.17-2.52V50.33H162v8.4h-1.45Z" transform="translate(-10.12 -8.39)"/><path class="cls-1" d="M165.49,56.28a1.58,1.58,0,0,0,1.74,1.37c1.3,0,1.66-.71,1.66-1.21s-.36-.89-1.49-1.19l-1.46-.4a2.08,2.08,0,0,1-1.71-2.16c0-1.39,1.05-2.55,3-2.55a2.55,2.55,0,0,1,2.88,2.61h-1.35a1.41,1.41,0,0,0-1.57-1.42,1.34,1.34,0,0,0-1.51,1.21c0,.47.26.82.93,1l2,.56a2.06,2.06,0,0,1,1.75,2.19c0,1.71-1.49,2.61-3,2.61-2,0-3.11-1.05-3.16-2.64Z" transform="translate(-10.12 -8.39)"/><path class="cls-1" d="M174.59,53.36a1.06,1.06,0,1,1-1.07,1.06A1.07,1.07,0,0,1,174.59,53.36Z" transform="translate(-10.12 -8.39)"/><path class="cls-1" d="M186.89,57.1a4.83,4.83,0,0,1-3.79,1.82,4.32,4.32,0,0,1-4.57-4.4,4.24,4.24,0,0,1,4.33-4.38c2.6,0,4.4,2,4.4,5h-7.18a2.91,2.91,0,0,0,3,2.48,3.5,3.5,0,0,0,2.69-1.36Zm-1.27-3.21a2.68,2.68,0,0,0-2.77-2.39,2.65,2.65,0,0,0-2.77,2.39Z" transform="translate(-10.12 -8.39)"/><path class="cls-1" d="M194.88,53.85c0-1.26-.52-2.35-1.95-2.35s-2.18.91-2.18,2.51v4.72H189.3v-8.4h1.45v1h0a2.65,2.65,0,0,1,2.31-1.18,3,3,0,0,1,3.23,3.16v5.43h-1.44Z" transform="translate(-10.12 -8.39)"/><path class="cls-1" d="M205.93,50.33h1.45v7.24c0,3.09-1.48,4.7-4.73,4.7a5.06,5.06,0,0,1-3.92-1.8l1.16-.92A3.51,3.51,0,0,0,202.68,61c2.25,0,3.25-1.13,3.25-3v-.59h0a3.66,3.66,0,0,1-3.24,1.41,4.34,4.34,0,1,1,.05-8.68,3.9,3.9,0,0,1,3.19,1.51h0Zm-3,1.17a3,3,0,1,0,3,3A3,3,0,0,0,203,51.5Z" transform="translate(-10.12 -8.39)"/><path class="cls-1" d="M215.67,53.11c0-1.39-1.38-1.7-2.51-1.7a5.24,5.24,0,0,0-2.32.58l-.63-1.2a7.52,7.52,0,0,1,3-.65c2,0,3.88.85,3.88,2.85v5.74h-1.35v-.91a3.39,3.39,0,0,1-2.68,1.1c-2,0-3.65-1.14-3.65-3,0-1.53,1.3-2.88,3.64-2.88a3.78,3.78,0,0,1,2.59.95Zm-2.32,1.19c-1.77,0-2.37.85-2.37,1.67s.6,1.68,2.37,1.68,2.37-.85,2.37-1.68S215.12,54.3,213.35,54.3Z" transform="translate(-10.12 -8.39)"/><path class="cls-1" d="M226.69,50.33h1.45v7.24c0,3.09-1.48,4.7-4.73,4.7a5.07,5.07,0,0,1-3.92-1.8l1.16-.92A3.51,3.51,0,0,0,223.44,61c2.26,0,3.25-1.13,3.25-3v-.59h0a3.66,3.66,0,0,1-3.24,1.41,4.34,4.34,0,0,1,.05-8.68,3.89,3.89,0,0,1,3.19,1.51h0Zm-3,1.17a3,3,0,1,0,3,3A3,3,0,0,0,223.73,51.5Z" transform="translate(-10.12 -8.39)"/><path class="cls-1" d="M238.72,57.1a4.81,4.81,0,0,1-3.78,1.82,4.33,4.33,0,0,1-4.58-4.4,4.24,4.24,0,0,1,4.34-4.38c2.59,0,4.39,2,4.39,5h-7.18a2.91,2.91,0,0,0,3,2.48,3.5,3.5,0,0,0,2.69-1.36Zm-1.27-3.21a2.8,2.8,0,0,0-5.54,0Z" transform="translate(-10.12 -8.39)"/><path class="cls-1" d="M252,53.59c0-1.45-.84-2.09-1.84-2.09A2,2,0,0,0,248,53.65v5.08h-1.45V53.59c0-1.45-.83-2.09-1.83-2.09a2,2,0,0,0-2.11,2.15v5.08h-1.45v-8.4h1.45v1h0A2.49,2.49,0,0,1,245,50.14a2.61,2.61,0,0,1,2.48,1.45,2.87,2.87,0,0,1,2.74-1.45,3,3,0,0,1,3.22,3.29v5.3H252Z" transform="translate(-10.12 -8.39)"/><path class="cls-1" d="M263.9,57.1a4.83,4.83,0,0,1-3.79,1.82,4.32,4.32,0,0,1-4.57-4.4,4.23,4.23,0,0,1,4.33-4.38c2.59,0,4.4,2,4.4,5h-7.19a2.92,2.92,0,0,0,3,2.48,3.5,3.5,0,0,0,2.69-1.36Zm-1.28-3.21a2.8,2.8,0,0,0-5.54,0Z" transform="translate(-10.12 -8.39)"/><path class="cls-1" d="M271.88,53.85c0-1.26-.51-2.35-1.95-2.35s-2.17.91-2.17,2.51v4.72h-1.45v-8.4h1.45v1h0a2.65,2.65,0,0,1,2.31-1.18,3,3,0,0,1,3.23,3.16v5.43h-1.45Z" transform="translate(-10.12 -8.39)"/><path class="cls-1" d="M276.08,48.31h1.45v2h1.34v1.28h-1.34v5.15c0,.45.14.61.71.61h.66v1.34c-.21,0-.55,0-.89,0-1.48,0-1.93-.52-1.93-1.81V51.61h-1.16V50.33h1.16Z" transform="translate(-10.12 -8.39)"/><path class="cls-2" d="M88.78,32.16c-2.52,2.8-5.18,4.06-8.45,4.06-6.66,0-10.22-4.82-10.22-9.82a9.46,9.46,0,0,1,9.68-9.78c5.79,0,9.82,4.42,9.82,11h-16a6.52,6.52,0,0,0,6.73,5.54,7.83,7.83,0,0,0,6-3ZM85.94,25a6.25,6.25,0,0,0-12.38,0Z" transform="translate(-10.12 -8.39)"/><path class="cls-2" d="M105.85,17.05H110l-7.26,9.17,7.55,9.57h-4.32l-5.36-7-5.57,7h-4.1l7.55-9.57-7.26-9.17h4.31l5.07,6.76Z" transform="translate(-10.12 -8.39)"/><path class="cls-2" d="M113.61,17.05h3.23V20h.08A8.62,8.62,0,0,1,124,16.62a9.67,9.67,0,0,1,9.74,9.6,9.86,9.86,0,0,1-9.89,10,8.2,8.2,0,0,1-7-3.31h-.08V43.7h-3.23Zm9.85,2.59a6.78,6.78,0,1,0,6.87,6.62A6.69,6.69,0,0,0,123.46,19.64Z" transform="translate(-10.12 -8.39)"/><path class="cls-2" d="M155.84,32.16c-2.52,2.8-5.18,4.06-8.45,4.06-6.66,0-10.22-4.82-10.22-9.82a9.46,9.46,0,0,1,9.68-9.78c5.79,0,9.82,4.42,9.82,11h-16a6.5,6.5,0,0,0,6.72,5.54,7.83,7.83,0,0,0,6-3ZM153,25a6.25,6.25,0,0,0-12.37,0Z" transform="translate(-10.12 -8.39)"/><path class="cls-2" d="M161,17.05h3.24v2.66h.07c1.62-2.91,3.17-3.09,5.9-3.09V20a6.52,6.52,0,0,0-1.48-.18c-2.69,0-4.49,1.87-4.49,5.28V35.79H161Z" transform="translate(-10.12 -8.39)"/><path class="cls-2" d="M175.23,12.52h3.24v4.53h3v2.84h-3V31.4c0,1,.32,1.37,1.58,1.37h1.48v3c-.47,0-1.23,0-2,0-3.31,0-4.32-1.15-4.32-4V19.89h-2.59V17.05h2.59Z" transform="translate(-10.12 -8.39)"/><path class="cls-2" d="M204.25,16.62a9.89,9.89,0,0,1,10.15,9.82c0,5.36-4,9.78-10.15,9.78s-10.14-4.42-10.14-9.78A9.89,9.89,0,0,1,204.25,16.62Zm-6.68,9.82a6.69,6.69,0,1,0,13.38,0,6.69,6.69,0,1,0-13.38,0Z" transform="translate(-10.12 -8.39)"/><path class="cls-2" d="M218.89,17.05h3.24V20h.07a8.63,8.63,0,0,1,7.12-3.38,9.68,9.68,0,0,1,9.75,9.6,9.86,9.86,0,0,1-9.89,10,8.22,8.22,0,0,1-7-3.31h-.07V43.7h-3.24Zm9.86,2.59a6.78,6.78,0,1,0,6.87,6.62A6.69,6.69,0,0,0,228.75,19.64Z" transform="translate(-10.12 -8.39)"/><path class="cls-2" d="M243.85,12.52h3.23v4.53h3v2.84h-3V31.4c0,1,.33,1.37,1.59,1.37h1.47v3c-.47,0-1.22,0-2,0-3.31,0-4.31-1.15-4.31-4V19.89h-2.59V17.05h2.59Z" transform="translate(-10.12 -8.39)"/><path class="cls-2" d="M255.63,8.85a2.27,2.27,0,1,1-2.26,2.27A2.26,2.26,0,0,1,255.63,8.85ZM254,17.05h3.23V35.79H254Z" transform="translate(-10.12 -8.39)"/><path class="cls-2" d="M275.55,17.05h4.1l-7.27,9.17,7.56,9.57h-4.32l-5.36-7-5.58,7h-4.1l7.56-9.57-7.27-9.17h4.32l5.07,6.76Z" transform="translate(-10.12 -8.39)"/><path class="cls-1" d="M57.46,8.39H25.9L41.69,35.73Z" transform="translate(-10.12 -8.39)"/><path class="cls-2" d="M25.91,8.39,10.12,35.73H41.69Z" transform="translate(-10.12 -8.39)"/></svg>