<?xml version="1.0" encoding="utf-8"?>
<!-- Generator: Adobe Illustrator 23.0.3, SVG Export Plug-In . SVG Version: 6.00 Build 0)  -->
<svg version="1.1" id="Layer_1" xmlns="http://www.w3.org/2000/svg" xmlns:xlink="http://www.w3.org/1999/xlink" x="0px" y="0px"
	 viewBox="0 0 100 100" style="enable-background:new 0 0 100 100;" xml:space="preserve">
<style type="text/css">
	.st0{fill:#2DA349;}
	.st1{font-family:'Poppins-SemiBold';}
	.st2{font-size:18px;}
</style>
<g>
	<path class="st0" d="M50,6.79c-10.85,0-19.68,8.83-19.68,19.68c0,4.1,3.23,10.72,3.37,11l0.03,0.05L50,62.16l16.24-24.58
		c2.25-3.28,3.44-7.12,3.44-11.11C69.68,15.62,60.85,6.79,50,6.79z M50,34.33c-4.74,0-8.6-3.86-8.6-8.6s3.86-8.6,8.6-8.6
		s8.6,3.86,8.6,8.6S54.74,34.33,50,34.33z"/>
	<text transform="matrix(1 0 0 1 5.6033 82.5364)" class="st0 st1 st2">view map</text>
</g>
</svg>
